#N canvas -10 32 1920 2079 12;
#X obj 713 237 netsend -u -b;
#X msg 712 15 connect 127.0.0.1 34254;
#X msg 739 67 connect 10.244.1.228 34254;
#N canvas 387 832 1020 789 sub 0;
#X obj 116 117 vradio 20 1 0 3 empty empty empty 0 -8 0 10 #fcfcfc
#000000 #000000 0;
#X text 150 117 Stop;
#X text 150 138 Start;
#X text 150 158 Pause;
#X obj 116 216 oscformat -f i /gisele/set_status;
#X obj 116 240 s osc_sender;
#X connect 0 0 4 0;
#X connect 4 0 5 0;
#X coords 0 -1 2 2 100 90 2 100 100;
#X restore 71 10 pd sub;
#X obj 769 136 r osc_sender;
#N canvas 1979 504 1590 1137 set_note_len 0;
#X obj 59 334 s osc_sender;
#X obj 113 137 nbx 5 14 0 1e+37 0 1 empty empty empty 0 -8 0 10 #fcfcfc
#000000 #000000 2 256;
#X text 184 134 Note len;
#X text 183 107 Base seq;
#X obj 126 228 pack f f;
#X obj 114 111 nbx 5 14 0 1e+37 0 1 empty empty empty 0 -8 0 10 #fcfcfc
#000000 #000000 0 256;
#X obj 60 270 list store;
#X obj 61 180 t b b f;
#X obj 59 304 oscformat -f if /gisele/set_note_len;
#X connect 1 0 7 0;
#X connect 4 0 6 1;
#X connect 5 0 4 0;
#X connect 6 0 8 0;
#X connect 7 0 6 0;
#X connect 7 1 4 0;
#X connect 7 2 4 1;
#X connect 8 0 0 0;
#X coords 0 -1 1 1 150 60 2 100 100;
#X restore 194 10 pd set_note_len;
#N canvas -10 32 1920 2042 set_bpm 0;
#X obj 117 206 s osc_sender;
#X obj 117 134 nbx 5 14 1 9e+10 0 1 empty empty empty 0 -8 0 10 #fcfcfc
#000000 #000000 404 256;
#X text 127 106 BPM;
#X obj 117 182 oscformat -f f /gisele/set_bpm;
#X connect 1 0 3 0;
#X connect 3 0 0 0;
#X coords 0 -1 1 1 85 60 2 100 100;
#X restore 76 129 pd set_bpm;
#N canvas 1979 504 1590 1137 set_loop_len 0;
#X obj 127 164 hradio 25 1 1 8 empty empty empty 0 -8 0 10 #fcfcfc
#000000 #000000 6;
#X msg 249 337 16;
#X msg 139 332 4;
#X msg 191 334 8;
#X msg 51 332 1, f 2;
#X msg 91 333 2, f 2;
#X msg 304 333 32;
#X msg 359 335 64;
#X msg 408 336 128;
#X obj 110 276 route 0 1 2 3 4 5 6 7;
#X obj 99 545 s osc_sender;
#X text 133 194 1;
#X text 158 144 2;
#X text 185 193 4;
#X text 208 143 8;
#X text 231 193 16;
#X text 256 143 32;
#X text 280 194 64;
#X text 300 142 128;
#X text 128 110 Loop Length;
#X obj 255 113 nbx 5 14 -1e+37 1e+37 0 1 empty empty empty 0 -8 0 10
#fcfcfc #000000 #000000 23 256;
#X obj 99 491 pack f f;
#X obj 161 449 t b f;
#X obj 147 228 nbx 5 14 -1e+37 1e+37 0 1 empty empty empty 0 -8 0 10
#fcfcfc #000000 #000000 0 256;
#X text 218 224 Base Seq;
#X obj 99 518 oscformat -f if /gisele/set_loop_length;
#X connect 0 0 9 0;
#X connect 1 0 22 0;
#X connect 2 0 22 0;
#X connect 3 0 22 0;
#X connect 4 0 22 0;
#X connect 5 0 22 0;
#X connect 6 0 22 0;
#X connect 7 0 22 0;
#X connect 8 0 22 0;
#X connect 9 0 4 0;
#X connect 9 1 5 0;
#X connect 9 2 2 0;
#X connect 9 3 3 0;
#X connect 9 4 1 0;
#X connect 9 5 6 0;
#X connect 9 6 7 0;
#X connect 9 7 8 0;
#X connect 20 0 22 0;
#X connect 21 0 25 0;
#X connect 22 0 21 0;
#X connect 22 1 21 1;
#X connect 23 0 21 0;
#X connect 25 0 10 0;
#X coords 0 -1 1 1 254 159 2 100 100;
#X restore 69 305 pd set_loop_len;
#N canvas 1960 377 1602 1065 regenerate 0;
#X obj 116 136 nbx 5 14 0 1e+37 0 0 empty empty empty 0 -8 0 10 #fcfcfc
#000000 #000000 0 256;
#X obj 119 222 oscformat -f i /gisele/regenerate;
#X obj 119 246 s osc_sender;
#X text 115 106 Regenerate;
#X text 180 133 Base Seq;
#X obj 238 108 bng 15 250 50 0 empty empty empty 17 7 0 10 #fcfcfc
#000000 #000000;
#X obj 120 188 f;
#X connect 0 0 6 1;
#X connect 1 0 2 0;
#X connect 5 0 6 0;
#X connect 6 0 1 0;
#X coords 0 -1 1 1 160 60 2 100 100;
#X restore 71 225 pd regenerate;
#N canvas 1549 486 1492 1221 empty 0;
#X obj 119 117 bng 15 250 50 0 empty empty empty 17 7 0 10 #fcfcfc
#000000 #000000;
#X msg 126 187 1;
#X obj 123 217 oscformat -f i /gisele/empty;
#X text 147 115 Empty;
#X obj 123 241 s osc_sender;
#X connect 0 0 1 0;
#X connect 1 0 2 0;
#X connect 2 0 4 0;
#X coords 0 -1 1 1 100 50 2 100 100;
#X restore 249 234 pd empty;
#N canvas 1549 486 1492 1221 set_root 0;
#X obj 125 161 nbx 5 14 0 12 0 1 empty empty empty 0 -8 0 10 #fcfcfc
#000000 #000000 8 256;
#X obj 124 136 nbx 5 14 0 1e+37 0 1 empty empty empty 0 -8 0 10 #fcfcfc
#000000 #000000 1 256;
#X text 198 131 Base Seq;
#X text 196 155 Semitones;
#X obj 123 188 nbx 5 14 0 8 0 1 empty empty empty 0 -8 0 10 #fcfcfc
#000000 #000000 3 256;
#X text 198 182 Octave;
#X obj 179 420 oscformat -f ii /gisele/set_root;
#X obj 179 444 s osc_sender;
#X obj 137 248 * 12;
#X obj 180 347 pack f f;
#X obj 165 280 + 12;
#X obj 177 247 t b f;
#X text 122 109 Root;
#X text 299 131 Midi note;
#X obj 309 156 nbx 5 14 12 127 0 1 empty empty empty 0 -8 0 10 #fcfcfc
#000000 #000000 55 256;
#X obj 179 389 list store;
#X obj 196 310 t b b f;
#X obj 130 223 + 1;
#X connect 0 0 11 0;
#X connect 1 0 9 0;
#X connect 4 0 17 0;
#X connect 6 0 7 0;
#X connect 8 0 10 0;
#X connect 9 0 15 1;
#X connect 10 0 16 0;
#X connect 11 0 10 0;
#X connect 11 1 10 1;
#X connect 14 0 16 0;
#X connect 15 0 6 0;
#X connect 16 0 15 0;
#X connect 16 1 9 0;
#X connect 16 2 9 1;
#X connect 17 0 8 0;
#X coords 0 -1 1 1 298 113 2 100 100;
#X restore 196 97 pd set_root;
#N canvas 1549 486 1492 1221 set_loop_len 0;
#X obj 127 164 hradio 25 1 1 8 empty empty empty 0 -8 0 10 #fcfcfc
#000000 #000000 4;
#X obj 225 287 route 0 1 2 3 4 5 6 7;
#X obj 255 113 nbx 5 14 0 1e+37 0 1 empty empty empty 0 -8 0 10 #fcfcfc
#000000 #000000 33 256;
#X msg 166 343 0, f 2;
#X obj 123 528 s osc_sender;
#X obj 123 429 pack f f;
#X text 128 110 Nb Events;
#X text 231 222 Base Seq;
#X obj 164 226 nbx 5 14 0 1e+37 0 0 empty empty empty 0 -8 0 10 #fcfcfc
#000000 #000000 0 256;
#X text 135 193 0;
#X text 158 144 1;
#X text 181 192 10;
#X text 208 143 20;
#X text 231 192 50;
#X text 252 143 200;
#X text 278 192 400;
#X text 302 142 800;
#X msg 206 344 1, f 2;
#X msg 254 343 10;
#X msg 306 345 20;
#X msg 364 348 50;
#X msg 419 344 200;
#X msg 474 346 400;
#X msg 523 347 800;
#X obj 123 504 oscformat -f ii /gisele/random_base/set_nb_events;
#X obj 109 466 list store;
#X obj 106 388 t b b f;
#X connect 0 0 1 0;
#X connect 1 0 3 0;
#X connect 1 1 17 0;
#X connect 1 2 18 0;
#X connect 1 3 19 0;
#X connect 1 4 20 0;
#X connect 1 5 21 0;
#X connect 1 6 22 0;
#X connect 1 7 23 0;
#X connect 2 0 26 0;
#X connect 3 0 26 0;
#X connect 5 0 25 1;
#X connect 8 0 5 0;
#X connect 17 0 26 0;
#X connect 18 0 26 0;
#X connect 19 0 26 0;
#X connect 20 0 26 0;
#X connect 21 0 26 0;
#X connect 22 0 26 0;
#X connect 23 0 26 0;
#X connect 24 0 4 0;
#X connect 25 0 24 0;
#X connect 26 0 25 0;
#X connect 26 1 5 0;
#X connect 26 2 5 1;
#X coords 0 -1 1 1 250 150 2 100 100;
#X restore 346 309 pd set_loop_len;
#N canvas 2148 387 1492 1221 add_random_base 0;
#X obj 119 229 nbx 5 14 0 127 0 1 empty empty empty 0 -8 0 10 #fcfcfc
#000000 #000000 94 256;
#X obj 119 204 nbx 5 14 0 100000 0 1 empty empty empty 0 -8 0 10 #fcfcfc
#000000 #000000 3 256;
#X obj 308 204 nbx 5 14 0 1e+37 0 1 empty empty empty 0 -8 0 10 #fcfcfc
#000000 #000000 1 256;
#X text 186 201 Note len avg +-;
#X text 187 226 Velocity avg +-;
#X obj 309 231 nbx 5 14 0 127 0 1 empty empty empty 0 -8 0 10 #fcfcfc
#000000 #000000 14 256;
#X obj 117 159 nbx 5 14 12 127 0 1 empty empty empty 0 -8 0 10 #fcfcfc
#000000 #000000 46 256;
#X text 184 156 Root Note;
#X obj 118 181 nbx 5 14 0 1e+37 0 1 empty empty empty 0 -8 0 10 #fcfcfc
#000000 #000000 14 256;
#X text 184 178 Nb events;
#X text 117 104 Add rand base;
#X obj 320 516 s osc_sender;
#X obj 353 112 bng 15 250 50 0 empty empty empty 17 7 0 10 #fcfcfc
#000000 #000000;
#X obj 320 463 list store;
#X obj 138 365 t b f;
#X obj 91 371 t b f;
#X obj 186 379 t b f;
#X obj 238 381 t b f;
#X obj 296 357 t b f;
#X obj 299 168 nbx 5 14 1 16 0 1 empty empty empty 0 -8 0 10 #fcfcfc
#000000 #000000 1 256;
#X text 295 144 Midi Ch;
#X obj 355 367 t b f;
#X obj 117 136 nbx 5 14 -1e+37 1e+37 0 1 empty empty empty 0 -8 0 10
#fcfcfc #000000 #000000 16 256;
#X text 188 132 Loop len;
#X obj 40 459 pack f f f f f f f f;
#X obj 410 368 t b f;
#X obj 320 492 oscformat -f fiiffifi /gisele/add_random_base;
#X connect 0 0 18 0;
#X connect 1 0 16 0;
#X connect 2 0 17 0;
#X connect 5 0 21 0;
#X connect 6 0 15 0;
#X connect 8 0 14 0;
#X connect 12 0 13 0;
#X connect 13 0 26 0;
#X connect 14 0 24 0;
#X connect 14 1 24 2;
#X connect 15 0 24 0;
#X connect 15 1 24 1;
#X connect 16 0 24 0;
#X connect 16 1 24 3;
#X connect 17 0 24 0;
#X connect 17 1 24 4;
#X connect 18 0 24 0;
#X connect 18 1 24 5;
#X connect 19 0 25 0;
#X connect 21 0 24 0;
#X connect 21 1 24 6;
#X connect 22 0 24 0;
#X connect 24 0 13 1;
#X connect 25 0 24 0;
#X connect 25 1 24 7;
#X connect 26 0 11 0;
#X coords 0 -1 1 1 280 170 2 100 100;
#X restore 64 485 pd add_random_base;
#N canvas 945 295 965 706 add_random_base 0;
#X obj 120 256 nbx 5 14 0 127 0 1 empty empty empty 0 -8 0 10 #fcfcfc
#000000 #000000 127 256;
#X obj 120 228 nbx 5 14 0 100000 0 1 empty empty empty 0 -8 0 10 #fcfcfc
#000000 #000000 1 256;
#X obj 309 228 nbx 5 14 0 1e+37 0 1 empty empty empty 0 -8 0 10 #fcfcfc
#000000 #000000 0 256;
#X text 187 225 Note len avg +-;
#X text 188 253 Velocity avg +-;
#X obj 310 255 nbx 5 14 0 127 0 1 empty empty empty 0 -8 0 10 #fcfcfc
#000000 #000000 0 256;
#X obj 119 151 nbx 5 14 12 127 0 1 empty empty empty 0 -8 0 10 #fcfcfc
#000000 #000000 54 256;
#X text 186 148 Root Note;
#X obj 120 177 nbx 5 14 0 1e+37 0 1 empty empty empty 0 -8 0 10 #fcfcfc
#000000 #000000 8 256;
#X obj 196 530 s osc_sender;
#X text 117 104 Add euclid base;
#X obj 120 202 nbx 5 14 0 1e+37 0 1 empty empty empty 0 -8 0 10 #fcfcfc
#000000 #000000 12 256;
#X text 186 174 Pulses;
#X text 186 199 Steps;
#X obj 197 474 list store;
#X obj 351 115 bng 15 250 50 0 empty empty empty 17 7 0 10 #fcfcfc
#000000 #000000;
#X obj 309 201 nbx 5 14 1 16 0 0 empty empty empty 0 -8 0 10 #fcfcfc
#000000 #000000 0 256;
#X text 305 177 Midi Ch;
#X obj 91 343 t b f;
#X obj 137 344 t b f;
#X obj 184 345 t b f;
#X obj 230 345 t b f;
#X obj 277 346 t b f;
#X obj 325 345 t b f;
#X obj 375 345 t b f;
#X obj 151 424 pack f f f f f f f f f;
#X obj 428 346 t b f;
#X obj 119 128 nbx 5 14 -1e+37 1e+37 0 1 empty empty empty 0 -8 0 10
#fcfcfc #000000 #000000 24 256;
#X text 186 126 Loop Len;
#X obj 196 506 oscformat -f fiiiffifi /gisele/add_euclid_base;
#X connect 0 0 23 0;
#X connect 1 0 21 0;
#X connect 2 0 22 0;
#X connect 5 0 24 0;
#X connect 6 0 18 0;
#X connect 8 0 19 0;
#X connect 11 0 20 0;
#X connect 14 0 29 0;
#X connect 15 0 14 0;
#X connect 16 0 26 0;
#X connect 18 0 25 0;
#X connect 18 1 25 1;
#X connect 19 0 25 0;
#X connect 19 1 25 2;
#X connect 20 0 25 0;
#X connect 20 1 25 3;
#X connect 21 0 25 0;
#X connect 21 1 25 4;
#X connect 22 0 25 0;
#X connect 22 1 25 5;
#X connect 23 0 25 0;
#X connect 23 1 25 6;
#X connect 24 0 25 0;
#X connect 24 1 25 7;
#X connect 25 0 14 1;
#X connect 26 0 25 0;
#X connect 26 1 25 8;
#X connect 27 0 25 0;
#X connect 29 0 9 0;
#X coords 0 -1 1 1 280 180 2 100 100;
#X restore 64 675 pd add_random_base;
#X msg 725 41 connect 192.168.0.239 34254;
#X msg 753 97 disconnect;
#X obj 769 160 list prepend send;
#X obj 769 184 list trim;
#N canvas 1979 504 1590 1137 remove 0;
#X text 115 106 Remove Base Seq;
#X obj 160 136 nbx 5 14 -1e+37 1e+37 0 1 empty empty empty 0 -8 0 10
#fcfcfc #000000 #000000 3 256;
#X obj 150 233 s osc_sender;
#X obj 150 209 oscformat -f i /gisele/remove_base_seq;
#X obj 163 180 i;
#X obj 252 110 bng 15 250 50 0 empty empty empty 17 7 0 10 #fcfcfc
#000000 #000000;
#X connect 1 0 4 1;
#X connect 3 0 2 0;
#X connect 4 0 3 0;
#X connect 5 0 4 0;
#X coords 0 -1 1 1 180 60 2 100 100;
#X restore 383 482 pd remove;
#N canvas -10 32 1920 2079 add_fx 0;
#X obj 199 170 nbx 5 14 0 1e+37 0 0 empty empty empty 0 -8 0 10 #fcfcfc
#000000 #000000 0 256;
#X obj 153 283 s osc_sender;
#X obj 166 230 i;
#X obj 270 113 bng 15 250 50 0 empty empty empty 17 7 0 10 #fcfcfc
#000000 #000000;
#X text 162 114 Add fx proc;
#X obj 153 259 oscformat -f i /gisele/add_fx_processor;
#X text 156 142 Connect to base seq:;
#X connect 0 0 2 1;
#X connect 2 0 5 0;
#X connect 3 0 2 0;
#X connect 5 0 1 0;
#X coords 0 -1 1 1 150 100 2 150 100;
#X restore 407 575 pd add_fx;
#X connect 1 0 0 0;
#X connect 2 0 0 0;
#X connect 4 0 16 0;
#X connect 14 0 0 0;
#X connect 15 0 0 0;
#X connect 16 0 17 0;
#X connect 17 0 0 0;
#X coords 0 1039.5 1 1038.5 85 60 0;
