#N canvas -10 32 1920 2079 12;
#X obj 729 208 netsend -u -b;
#X msg 733 59 connect 192.168.0.20 34254;
#X msg 720 33 connect 127.0.0.1 34254;
#X msg 747 85 connect 10.244.1.228 34254;
#N canvas 387 832 1020 789 sub 0;
#X obj 116 117 vradio 20 1 0 3 empty empty empty 0 -8 0 10 #fcfcfc
#000000 #000000 0;
#X text 150 117 Stop;
#X text 150 138 Start;
#X text 150 158 Pause;
#X obj 116 216 oscformat -f i /gisele/set_status;
#X obj 116 240 s osc_sender;
#X connect 0 0 4 0;
#X connect 4 0 5 0;
#X coords 0 -1 2 2 100 90 2 100 100;
#X restore 71 29 pd sub;
#X obj 777 154 r osc_sender;
#N canvas 2092 519 1020 794 set_note_len 0;
#X obj 51 287 s osc_sender;
#X obj 51 257 oscformat -f ii /gisele/set_note_len;
#X obj 113 137 nbx 5 14 0 1e+37 0 1 empty empty empty 0 -8 0 10 #fcfcfc
#000000 #000000 2 256;
#X text 184 134 Note len;
#X text 183 107 Base seq;
#X obj 50 227 pack f f;
#X obj 59 192 t b f;
#X obj 114 111 nbx 5 14 0 1e+37 0 1 empty empty empty 0 -8 0 10 #fcfcfc
#000000 #000000 0 256;
#X connect 1 0 0 0;
#X connect 2 0 6 0;
#X connect 5 0 1 0;
#X connect 6 0 5 0;
#X connect 6 1 5 1;
#X connect 7 0 5 0;
#X coords 0 -1 1 1 150 60 2 100 100;
#X restore 194 29 pd set_note_len;
#N canvas 1960 377 1602 1065 set_bpm 0;
#X obj 117 182 oscformat -f i /gisele/set_bpm;
#X obj 117 206 s osc_sender;
#X obj 117 134 nbx 5 14 1 1e+37 0 1 empty empty empty 0 -8 0 10 #fcfcfc
#000000 #000000 104 256;
#X text 127 106 BPM;
#X connect 0 0 1 0;
#X connect 2 0 0 0;
#X coords 0 -1 1 1 85 60 2 100 100;
#X restore 76 148 pd set_bpm;
#N canvas 2092 519 1020 794 set_loop_len 0;
#X obj 127 164 hradio 25 1 1 8 empty empty empty 0 -8 0 10 #fcfcfc
#000000 #000000 4;
#X msg 249 337 16;
#X msg 139 332 4;
#X msg 191 334 8;
#X msg 51 332 1, f 2;
#X msg 91 333 2, f 2;
#X msg 304 333 32;
#X msg 359 335 64;
#X msg 408 336 128;
#X obj 110 276 route 0 1 2 3 4 5 6 7;
#X obj 97 407 oscformat -f i /gisele/set_loop_length;
#X obj 97 431 s osc_sender;
#X text 133 194 1;
#X text 158 144 2;
#X text 185 193 4;
#X text 208 143 8;
#X text 231 193 16;
#X text 256 143 32;
#X text 280 194 64;
#X text 300 142 128;
#X text 128 110 Loop Length;
#X obj 255 113 nbx 5 14 -1e+37 1e+37 0 1 empty empty empty 0 -8 0 10
#fcfcfc #000000 #000000 16 256;
#X connect 0 0 9 0;
#X connect 1 0 10 0;
#X connect 2 0 10 0;
#X connect 3 0 10 0;
#X connect 4 0 10 0;
#X connect 5 0 10 0;
#X connect 6 0 10 0;
#X connect 7 0 10 0;
#X connect 8 0 10 0;
#X connect 9 0 4 0;
#X connect 9 1 5 0;
#X connect 9 2 2 0;
#X connect 9 3 3 0;
#X connect 9 4 1 0;
#X connect 9 5 6 0;
#X connect 9 6 7 0;
#X connect 9 7 8 0;
#X connect 10 0 11 0;
#X connect 21 0 10 0;
#X coords 0 -1 1 1 250 120 2 100 100;
#X restore 193 110 pd set_loop_len;
#N canvas 1960 377 1602 1065 regenerate 0;
#X obj 116 136 nbx 5 14 0 1e+37 0 0 empty empty empty 0 -8 0 10 #fcfcfc
#000000 #000000 0 256;
#X obj 119 222 oscformat -f i /gisele/regenerate;
#X obj 119 246 s osc_sender;
#X text 115 106 Regenerate;
#X text 180 133 Base Seq;
#X obj 238 108 bng 15 250 50 0 empty empty empty 17 7 0 10 #fcfcfc
#000000 #000000;
#X obj 120 188 f;
#X connect 0 0 6 1;
#X connect 1 0 2 0;
#X connect 5 0 6 0;
#X connect 6 0 1 0;
#X coords 0 -1 1 1 160 60 2 100 100;
#X restore 77 247 pd regenerate;
#N canvas 1186 413 1590 1137 empty 0;
#X obj 119 117 bng 15 250 50 0 empty empty empty 17 7 0 10 #fcfcfc
#000000 #000000;
#X msg 126 187 1;
#X obj 123 217 oscformat -f i /gisele/empty;
#X text 147 115 Empty;
#X obj 123 241 s osc_sender;
#X connect 0 0 1 0;
#X connect 1 0 2 0;
#X connect 2 0 4 0;
#X coords 0 -1 1 1 100 50 2 100 100;
#X restore 253 254 pd empty;
#N canvas 1960 377 1602 1065 set_root 0;
#X obj 125 161 nbx 5 14 0 12 0 0 empty empty empty 0 -8 0 10 #fcfcfc
#000000 #000000 0 256;
#X obj 124 136 nbx 5 14 0 1e+37 0 0 empty empty empty 0 -8 0 10 #fcfcfc
#000000 #000000 0 256;
#X text 198 131 Base Seq;
#X text 196 155 Semitones;
#X obj 124 187 nbx 5 14 0 8 0 0 empty empty empty 0 -8 0 10 #fcfcfc
#000000 #000000 0 256;
#X text 198 182 Octave;
#X obj 118 404 oscformat -f ii /gisele/set_root;
#X obj 118 428 s osc_sender;
#X obj 55 218 * 12;
#X obj 121 308 pack f f;
#X obj 143 248 + 12;
#X obj 208 212 t b f;
#X obj 143 272 t b f;
#X text 122 109 Root;
#X obj 275 111 bng 15 250 50 0 empty empty empty 17 7 0 10 #fcfcfc
#000000 #000000;
#X obj 117 369 list store;
#X connect 0 0 11 0;
#X connect 1 0 9 0;
#X connect 4 0 8 0;
#X connect 6 0 7 0;
#X connect 8 0 10 0;
#X connect 9 0 15 1;
#X connect 10 0 12 0;
#X connect 11 0 10 0;
#X connect 11 1 10 1;
#X connect 12 0 9 0;
#X connect 12 1 9 1;
#X connect 14 0 15 0;
#X connect 15 0 6 0;
#X coords 0 -1 1 1 200 110 2 100 100;
#X restore 68 324 pd set_root;
#N canvas 1343 363 1602 1065 set_loop_len 0;
#X obj 127 164 hradio 25 1 1 8 empty empty empty 0 -8 0 10 #fcfcfc
#000000 #000000 2;
#X obj 225 287 route 0 1 2 3 4 5 6 7;
#X obj 255 113 nbx 5 14 0 1e+37 0 1 empty empty empty 0 -8 0 10 #fcfcfc
#000000 #000000 10 256;
#X msg 166 343 0, f 2;
#X obj 95 496 s osc_sender;
#X obj 97 407 t b f;
#X obj 96 443 pack f f;
#X text 128 110 Nb Events;
#X text 231 222 Base Seq;
#X obj 164 226 nbx 5 14 0 1e+37 0 0 empty empty empty 0 -8 0 10 #fcfcfc
#000000 #000000 0 256;
#X text 135 193 0;
#X text 158 144 1;
#X text 181 192 10;
#X text 208 143 20;
#X text 231 192 50;
#X text 252 143 200;
#X text 278 192 400;
#X text 302 142 800;
#X msg 206 344 1, f 2;
#X msg 254 343 10;
#X msg 306 345 20;
#X msg 364 348 50;
#X msg 419 344 200;
#X msg 474 346 400;
#X msg 523 347 800;
#X obj 95 472 oscformat -f ii /gisele/random_base/set_nb_events;
#X connect 0 0 1 0;
#X connect 1 0 3 0;
#X connect 1 1 18 0;
#X connect 1 2 19 0;
#X connect 1 3 20 0;
#X connect 1 4 21 0;
#X connect 1 5 22 0;
#X connect 1 6 23 0;
#X connect 1 7 24 0;
#X connect 2 0 5 0;
#X connect 3 0 5 0;
#X connect 5 0 6 0;
#X connect 5 1 6 1;
#X connect 6 0 25 0;
#X connect 9 0 6 0;
#X connect 18 0 5 0;
#X connect 19 0 5 0;
#X connect 20 0 5 0;
#X connect 21 0 5 0;
#X connect 22 0 5 0;
#X connect 23 0 5 0;
#X connect 24 0 5 0;
#X connect 25 0 4 0;
#X coords 0 -1 1 1 250 150 2 100 100;
#X restore 378 277 pd set_loop_len;
#N canvas 1960 377 1590 1134 add_random_base 0;
#X obj 120 213 nbx 5 14 0 127 0 0 empty empty empty 0 -8 0 10 #fcfcfc
#000000 #000000 0 256;
#X obj 120 185 nbx 5 14 0 100000 0 0 empty empty empty 0 -8 0 10 #fcfcfc
#000000 #000000 0 256;
#X obj 309 185 nbx 5 14 0 1e+37 0 0 empty empty empty 0 -8 0 10 #fcfcfc
#000000 #000000 0 256;
#X text 187 182 Note len avg +-;
#X text 188 210 Velocity avg +-;
#X obj 310 212 nbx 5 14 0 127 0 0 empty empty empty 0 -8 0 10 #fcfcfc
#000000 #000000 0 256;
#X obj 120 132 nbx 5 14 12 127 0 0 empty empty empty 0 -8 0 10 #fcfcfc
#000000 #000000 0 256;
#X text 187 129 Root Note;
#X obj 121 158 nbx 5 14 0 1e+37 0 0 empty empty empty 0 -8 0 10 #fcfcfc
#000000 #000000 0 256;
#X text 187 155 Nb events;
#X text 117 104 Add rand base;
#X obj 143 403 s osc_sender;
#X obj 160 270 pack f f f f f f;
#X obj 353 114 bng 15 250 50 0 empty empty empty 17 7 0 10 #fcfcfc
#000000 #000000;
#X obj 178 314 list store;
#X obj 143 379 oscformat -f iiifif /gisele/add_random_base;
#X connect 0 0 12 4;
#X connect 1 0 12 2;
#X connect 2 0 12 3;
#X connect 5 0 12 5;
#X connect 6 0 12 0;
#X connect 8 0 12 1;
#X connect 12 0 14 1;
#X connect 13 0 14 0;
#X connect 14 0 15 0;
#X connect 15 0 11 0;
#X coords 0 -1 1 1 280 140 2 100 100;
#X restore 69 453 pd add_random_base;
#N canvas 218 477 1590 1134 add_random_base 0;
#X obj 121 237 nbx 5 14 0 127 0 0 empty empty empty 0 -8 0 10 #fcfcfc
#000000 #000000 0 256;
#X obj 121 209 nbx 5 14 0 100000 0 0 empty empty empty 0 -8 0 10 #fcfcfc
#000000 #000000 0 256;
#X obj 310 209 nbx 5 14 0 1e+37 0 0 empty empty empty 0 -8 0 10 #fcfcfc
#000000 #000000 0 256;
#X text 188 206 Note len avg +-;
#X text 189 234 Velocity avg +-;
#X obj 311 236 nbx 5 14 0 127 0 0 empty empty empty 0 -8 0 10 #fcfcfc
#000000 #000000 0 256;
#X obj 120 132 nbx 5 14 12 127 0 0 empty empty empty 0 -8 0 10 #fcfcfc
#000000 #000000 0 256;
#X text 187 129 Root Note;
#X obj 121 158 nbx 5 14 0 1e+37 0 0 empty empty empty 0 -8 0 10 #fcfcfc
#000000 #000000 0 256;
#X obj 143 403 s osc_sender;
#X text 117 104 Add euclid base;
#X obj 121 183 nbx 5 14 0 1e+37 0 0 empty empty empty 0 -8 0 10 #fcfcfc
#000000 #000000 0 256;
#X text 187 155 Pulses;
#X text 187 180 Steps;
#X obj 144 311 pack f f f f f f f;
#X obj 144 347 list store;
#X obj 351 115 bng 15 250 50 0 empty empty empty 17 7 0 10 #fcfcfc
#000000 #000000;
#X obj 143 379 oscformat -f iiiifif /gisele/add_euclid_base;
#X connect 0 0 14 5;
#X connect 1 0 14 3;
#X connect 2 0 14 4;
#X connect 5 0 14 6;
#X connect 6 0 14 0;
#X connect 8 0 14 1;
#X connect 11 0 14 2;
#X connect 14 0 15 1;
#X connect 15 0 17 0;
#X connect 16 0 15 0;
#X connect 17 0 9 0;
#X coords 0 -1 1 1 280 160 2 100 100;
#X restore 397 478 pd add_random_base;
#X connect 1 0 0 0;
#X connect 2 0 0 0;
#X connect 3 0 0 0;
#X connect 5 0 0 0;
