#N canvas -10 21 960 1017 12;
#X msg 69 66 0;
#X obj 712 428 netsend -u -b;
#X obj 69 108 oscformat -f i /gisele/set_status;
#X msg 123 66 1;
#X msg 180 67 2;
#X text 65 38 Stop;
#X text 118 37 Start;
#X text 178 37 Pause;
#X obj 68 202 oscformat -f i /gisele/set_bpm;
#X msg 68 160 120;
#X msg 118 161 30;
#X msg 169 163 90;
#X msg 217 163 400;
#X obj 68 297 oscformat -f i /gisele/set_loop_length;
#X msg 322 259 2e+06;
#X msg 129 259 1e+06;
#X msg 252 257 1.5e+06;
#X msg 182 260 1.2e+06;
#X msg 259 165 800;
#X msg 682 40 connect 192.168.0.20 34254;
#X msg 687 65 connect 127.0.0.1 34254;
#X msg 68 358 120;
#X msg 113 357 30;
#X msg 164 359 90;
#X msg 212 359 400;
#X msg 254 361 800;
#X obj 68 398 oscformat -f i /gisele/set_loop_length_bars;
#X msg 216 449 400;
#X msg 258 451 800;
#X obj 67 490 oscformat -f i /gisele/set_nb_events;
#X msg 67 448 1;
#X msg 117 447 20;
#X msg 168 449 200;
#X obj 69 625 oscformat -f i /gisele/set_root;
#X obj 157 593 + 12;
#X obj 69 563 * 12;
#X obj 72 537 hsl 128 15 0 8 0 0 empty empty empty -2 -8 0 10 #fcfcfc
#000000 #000000 0 1;
#X obj 225 537 hsl 128 15 0 12 0 0 empty empty empty -2 -8 0 10 #fcfcfc
#000000 #000000 0 1;
#X obj 222 557 t b i;
#X text 113 556 octave;
#X text 281 558 pitch;
#X msg 69 739 1;
#X obj 69 773 oscformat -f i /gisele/reseed;
#X msg 322 665 2e+06;
#X msg 380 664 2e+07;
#X msg 68 663 200000;
#X msg 129 665 1e+06;
#X msg 252 663 1.5e+06;
#X msg 182 666 1.2e+06;
#X msg 377 261 5e+06;
#X msg 428 258 2e+07;
#X msg 68 257 500000;
#X obj 68 703 oscformat -f i /gisele/set_note_len;
#X connect 0 0 2 0;
#X connect 2 0 1 0;
#X connect 3 0 2 0;
#X connect 4 0 2 0;
#X connect 8 0 1 0;
#X connect 9 0 8 0;
#X connect 10 0 8 0;
#X connect 11 0 8 0;
#X connect 12 0 8 0;
#X connect 13 0 1 0;
#X connect 14 0 13 0;
#X connect 15 0 13 0;
#X connect 16 0 13 0;
#X connect 17 0 13 0;
#X connect 18 0 8 0;
#X connect 19 0 1 0;
#X connect 20 0 1 0;
#X connect 21 0 26 0;
#X connect 22 0 26 0;
#X connect 23 0 26 0;
#X connect 24 0 26 0;
#X connect 25 0 26 0;
#X connect 27 0 29 0;
#X connect 28 0 29 0;
#X connect 29 0 1 0;
#X connect 30 0 29 0;
#X connect 31 0 29 0;
#X connect 32 0 29 0;
#X connect 33 0 1 0;
#X connect 34 0 33 0;
#X connect 35 0 34 0;
#X connect 36 0 35 0;
#X connect 37 0 38 0;
#X connect 38 0 34 0;
#X connect 38 1 34 1;
#X connect 41 0 42 0;
#X connect 42 0 1 0;
#X connect 43 0 52 0;
#X connect 44 0 52 0;
#X connect 45 0 52 0;
#X connect 46 0 52 0;
#X connect 47 0 52 0;
#X connect 48 0 52 0;
#X connect 49 0 13 0;
#X connect 50 0 13 0;
#X connect 51 0 13 0;
#X connect 52 0 1 0;
