#N canvas -10 32 1920 2079 12;
#X msg 69 66 0;
#X obj 712 428 netsend -u -b;
#X obj 69 108 oscformat -f i /gisele/set_status;
#X msg 123 66 1;
#X msg 180 67 2;
#X text 65 38 Stop;
#X text 118 37 Start;
#X text 178 37 Pause;
#X obj 68 202 oscformat -f i /gisele/set_bpm;
#X msg 68 160 120;
#X msg 118 161 30;
#X msg 169 163 90;
#X msg 217 163 400;
#X obj 68 297 oscformat -f i /gisele/set_loop_length;
#X msg 259 165 800;
#X msg 733 59 connect 192.168.0.20 34254;
#X msg 720 33 connect 127.0.0.1 34254;
#X msg 381 877 400;
#X msg 433 877 800;
#X msg 191 879 1;
#X msg 241 878 20;
#X msg 333 877 200;
#X obj 154 773 + 12;
#X obj 66 743 * 12;
#X obj 69 717 hsl 128 15 0 8 0 0 empty empty empty -2 -8 0 10 #fcfcfc
#000000 #000000 0 1;
#X obj 222 717 hsl 128 15 0 12 0 0 empty empty empty -2 -8 0 10 #fcfcfc
#000000 #000000 0 1;
#X obj 219 737 t b i;
#X text 110 736 octave;
#X text 278 738 pitch;
#X msg 747 85 connect 10.244.1.228 34254;
#X msg 147 879 10;
#X msg 68 257 16;
#X msg 207 257 4;
#X msg 251 257 8;
#X msg 119 257 1, f 2;
#X msg 159 258 2, f 2;
#X msg 301 256 32;
#X msg 356 258 64;
#X msg 405 259 128;
#X obj 73 411 oscformat -f iii /gisele/add_random_base;
#X msg 69 347 64;
#X msg 108 345 2;
#X msg 68 640 1;
#X obj 65 670 oscformat -f i /gisele/empty;
#X msg 70 457 64;
#X msg 109 455 2;
#X msg 151 458 2;
#X obj 74 521 oscformat -f iiii /gisele/add_euclid_base;
#X obj 69 593 oscformat -f i /gisele/regenerate;
#X msg 72 563 0;
#X msg 267 343 1000;
#X msg 224 343 30;
#X msg 181 343 10;
#X obj 66 801 pack f f;
#X msg 23 771 0;
#X obj 66 831 oscformat -f ii /gisele/set_root;
#X msg 72 883 0, f 2;
#X obj 72 942 oscformat -f ii /gisele/random_base/set_nb_events;
#X msg 362 121 0;
#X msg 448 118 1, f 2;
#X obj 387 156 pack f f;
#X obj 72 917 pack f f;
#X msg 497 117 2;
#X obj 387 184 oscformat -f ii /gisele/set_note_len;
#X msg 317 344 50;
#X msg 282 878 50;
#X msg 552 118 5;
#X obj 73 490 pack f f f f;
#X obj 72 380 pack f f f;
#X msg 357 345 2;
#X msg 199 459 4;
#X connect 0 0 2 0;
#X connect 2 0 1 0;
#X connect 3 0 2 0;
#X connect 4 0 2 0;
#X connect 8 0 1 0;
#X connect 9 0 8 0;
#X connect 10 0 8 0;
#X connect 11 0 8 0;
#X connect 12 0 8 0;
#X connect 13 0 1 0;
#X connect 14 0 8 0;
#X connect 15 0 1 0;
#X connect 16 0 1 0;
#X connect 17 0 61 1;
#X connect 18 0 61 1;
#X connect 19 0 61 1;
#X connect 20 0 61 1;
#X connect 21 0 61 1;
#X connect 22 0 53 1;
#X connect 23 0 22 0;
#X connect 24 0 23 0;
#X connect 25 0 26 0;
#X connect 26 0 22 0;
#X connect 26 1 22 1;
#X connect 29 0 1 0;
#X connect 30 0 61 1;
#X connect 31 0 13 0;
#X connect 32 0 13 0;
#X connect 33 0 13 0;
#X connect 34 0 13 0;
#X connect 35 0 13 0;
#X connect 36 0 13 0;
#X connect 37 0 13 0;
#X connect 38 0 13 0;
#X connect 39 0 1 0;
#X connect 40 0 68 0;
#X connect 41 0 68 1;
#X connect 42 0 43 0;
#X connect 43 0 1 0;
#X connect 44 0 67 0;
#X connect 45 0 67 1;
#X connect 46 0 67 2;
#X connect 47 0 1 0;
#X connect 48 0 1 0;
#X connect 49 0 48 0;
#X connect 50 0 68 2;
#X connect 51 0 68 2;
#X connect 52 0 68 2;
#X connect 53 0 55 0;
#X connect 54 0 53 0;
#X connect 55 0 1 0;
#X connect 56 0 61 0;
#X connect 57 0 1 0;
#X connect 58 0 60 0;
#X connect 59 0 60 1;
#X connect 60 0 63 0;
#X connect 61 0 57 0;
#X connect 62 0 60 1;
#X connect 63 0 1 0;
#X connect 64 0 68 2;
#X connect 65 0 61 1;
#X connect 66 0 60 1;
#X connect 67 0 47 0;
#X connect 68 0 39 0;
#X connect 69 0 68 2;
#X connect 70 0 67 3;
