#N canvas -10 32 1920 2079 12;
#X msg 25 65 connect 127.0.0.1 34254;
#X msg 240 70 0;
#X obj 401 323 netsend -u -b;
#X obj 664 42 hsl 128 15 0 500000 0 0 empty empty empty -2 -8 0 10
#fcfcfc #000000 #000000 0 1;
#X obj 570 102 hsl 128 15 0 500000 0 0 empty empty empty -2 -8 0 10
#fcfcfc #000000 #000000 0 1;
#X obj 602 144 pack f f;
#X obj 661 62 t b f;
#X obj 584 210 oscformat -f ii /tadeusz/params;
#X obj 276 151 oscformat -f i /gisele/set_status;
#X msg 302 70 1;
#X msg 359 71 2;
#X text 236 42 Stop;
#X text 297 41 Start;
#X text 357 41 Pause;
#X connect 0 0 2 0;
#X connect 1 0 8 0;
#X connect 3 0 6 0;
#X connect 4 0 5 0;
#X connect 5 0 7 0;
#X connect 6 0 5 0;
#X connect 6 1 5 1;
#X connect 7 0 2 0;
#X connect 8 0 2 0;
#X connect 9 0 8 0;
#X connect 10 0 8 0;
